<?xml version="1.0" encoding="utf-8"?>
<!-- Generator: Adobe Illustrator 16.0.0, SVG Export Plug-In . SVG Version: 6.00 Build 0)  -->
<!DOCTYPE svg PUBLIC "-//W3C//DTD SVG 1.1//EN" "http://www.w3.org/Graphics/SVG/1.1/DTD/svg11.dtd">
<svg version="1.1" id="icons" xmlns="http://www.w3.org/2000/svg" xmlns:xlink="http://www.w3.org/1999/xlink" x="0px" y="0px"
	 width="64px" height="64px" viewBox="0 0 64 64" enable-background="new 0 0 64 64" xml:space="preserve">
<g>
	<g>
		<path fill="#AAB2BD" d="M28.49,7.495c0,0.83-0.66,1.49-1.49,1.5h-0.01c-0.83,0-1.5-0.67-1.5-1.5s0.67-1.5,1.5-1.5
			C27.819,5.995,28.49,6.665,28.49,7.495z"/>
	</g>
	<g>
		<path fill="#E6E9ED" d="M61,13.995v5.01c0,2.2-1.79,3.99-3.99,3.99c-2.21,0-4-1.79-4-3.99H53v-5.01l2-2l2,2h0.01l1.99-2L61,13.995
			z"/>
	</g>
	<g>
		<path fill="#CCD1D9" d="M57.01,22.995h-12v-18c0-2.2,1.78-3.99,3.99-3.99s4,1.79,4,3.99v9v5.01h0.01
			C53.01,21.205,54.8,22.995,57.01,22.995z"/>
	</g>
	<g>
		<path fill="#656D78" d="M16,22.995h22h1v1c0,1.1-0.9,2-2,2H17c-1.11,0-2-0.9-2-2v-1H16z"/>
	</g>
	<g>
		<path fill="#CCD1D9" d="M38,22.995H16v-3c0-6.07,4.92-10.99,10.99-11H27c6.069,0,11,4.93,11,11v2.939V22.995z"/>
	</g>
	<g>
		<path fill="#AAB2BD" d="M27,8.995h-0.01c-0.68,0.001-1.343,0.072-1.988,0.191c5.112,0.945,8.994,5.424,8.994,10.809v2.939v0.061
			H38v-0.061v-2.939C38,13.925,33.069,8.995,27,8.995z"/>
	</g>
	<g>
		<path fill="#E6E9ED" d="M45.01,22.995v30v5H9v-5v-48c0-2.2,1.79-3.99,4-3.99h36c-2.21,0-3.99,1.79-3.99,3.99V22.995z M16,22.995
			h-1v1c0,1.1,0.89,2,2,2h20c1.1,0,2-0.9,2-2v-1h-1v-0.061v-2.939c0-6.07-4.931-11-11-11c0.83-0.01,1.49-0.67,1.49-1.5
			s-0.671-1.5-1.5-1.5c-0.83,0-1.5,0.67-1.5,1.5s0.67,1.5,1.5,1.5c-6.07,0.01-10.99,4.93-10.99,11V22.995z"/>
	</g>
	<g>
		<path fill="#656D78" d="M9,57.995h36.01v-5c0,0,2.9,0,4,0c1.09,0,1.99,0.899,1.99,2v6c0,1.1-0.9,2-2,2H5c-1.101,0-2-0.9-2-2v-6
			c0-1.101,0.899-2,2-2c1.1,0,4,0,4,0V57.995z"/>
	</g>
</g>
<g>
	<g>
		<path d="M8.996,58.998c-0.553,0-1-0.447-1-1V4.997c0-0.553,0.447-1,1-1s1,0.447,1,1v53.001
			C9.996,58.551,9.549,58.998,8.996,58.998z"/>
	</g>
	<g>
		<path d="M45.006,58.998c-0.553,0-1-0.447-1-1V4.997c0-0.553,0.447-1,1-1s1,0.447,1,1v53.001
			C46.006,58.551,45.559,58.998,45.006,58.998z"/>
	</g>
	<g>
		<path d="M40.006,34.014h-2c-0.553,0-1-0.447-1-1s0.447-1,1-1h2c0.553,0,1,0.447,1,1S40.559,34.014,40.006,34.014z"/>
	</g>
	<g>
		<path d="M40.007,37.014c-0.323,0-0.641-0.156-0.833-0.445l-2-3c-0.307-0.46-0.183-1.08,0.277-1.387
			c0.46-0.306,1.08-0.183,1.387,0.277l2,3c0.307,0.46,0.183,1.08-0.277,1.387C40.39,36.959,40.197,37.014,40.007,37.014z"/>
	</g>
	<g>
		<path d="M40.006,37.014h-2c-0.553,0-1-0.447-1-1s0.447-1,1-1h2c0.553,0,1,0.447,1,1S40.559,37.014,40.006,37.014z"/>
	</g>
	<g>
		<path d="M35.006,36.014h-2.998c-0.553,0-1-0.447-1-1s0.447-1,1-1h2.998c0.553,0,1,0.447,1,1S35.559,36.014,35.006,36.014z"/>
	</g>
	<g>
		<path d="M20.998,36.014h-7.002c-0.553,0-1-0.447-1-1s0.447-1,1-1h7.002c0.553,0,1,0.447,1,1S21.551,36.014,20.998,36.014z"/>
	</g>
	<g>
		<path d="M40.006,41.017h-2c-0.553,0-1-0.447-1-1s0.447-1,1-1h2c0.553,0,1,0.447,1,1S40.559,41.017,40.006,41.017z"/>
	</g>
	<g>
		<path d="M40.007,44.017c-0.323,0-0.641-0.156-0.833-0.445l-2-3c-0.307-0.46-0.183-1.08,0.277-1.387
			c0.46-0.306,1.08-0.182,1.387,0.277l2,3c0.307,0.46,0.183,1.08-0.277,1.387C40.39,43.962,40.197,44.017,40.007,44.017z"/>
	</g>
	<g>
		<path d="M40.006,44.017h-2c-0.553,0-1-0.447-1-1s0.447-1,1-1h2c0.553,0,1,0.447,1,1S40.559,44.017,40.006,44.017z"/>
	</g>
	<g>
		<path d="M35.006,43.017h-2.998c-0.553,0-1-0.447-1-1s0.447-1,1-1h2.998c0.553,0,1,0.447,1,1S35.559,43.017,35.006,43.017z"/>
	</g>
	<g>
		<path d="M24.002,43.017H13.996c-0.553,0-1-0.447-1-1s0.447-1,1-1h10.006c0.553,0,1,0.447,1,1S24.555,43.017,24.002,43.017z"/>
	</g>
	<g>
		<path d="M40.006,48.001h-26.01c-0.553,0-1-0.447-1-1s0.447-1,1-1h26.01c0.553,0,1,0.447,1,1S40.559,48.001,40.006,48.001z"/>
	</g>
	<g>
		<path d="M40.006,52.009h-2c-0.553,0-1-0.447-1-1s0.447-1,1-1h2c0.553,0,1,0.447,1,1S40.559,52.009,40.006,52.009z"/>
	</g>
	<g>
		<path d="M40.007,55.009c-0.323,0-0.641-0.156-0.833-0.445l-2-3c-0.307-0.46-0.183-1.08,0.277-1.387s1.08-0.183,1.387,0.277l2,3
			c0.307,0.46,0.183,1.08-0.277,1.387C40.39,54.954,40.197,55.009,40.007,55.009z"/>
	</g>
	<g>
		<path d="M40.006,55.009h-2c-0.553,0-1-0.447-1-1s0.447-1,1-1h2c0.553,0,1,0.447,1,1S40.559,55.009,40.006,55.009z"/>
	</g>
	<g>
		<path d="M35.006,54.009h-2.998c-0.553,0-1-0.447-1-1s0.447-1,1-1h2.998c0.553,0,1,0.447,1,1S35.559,54.009,35.006,54.009z"/>
	</g>
	<g>
		<path d="M16.994,54.009h-2.998c-0.553,0-1-0.447-1-1s0.447-1,1-1h2.998c0.553,0,1,0.447,1,1S17.547,54.009,16.994,54.009z"/>
	</g>
	<g>
		<path d="M46.008,58.998H7.994c-0.553,0-1-0.447-1-1s0.447-1,1-1h38.014c0.553,0,1,0.447,1,1S46.561,58.998,46.008,58.998z"/>
	</g>
	<g>
		<path d="M52.998,5.997c-0.553,0-1-0.447-1-1c0-1.652-1.343-2.996-2.994-2.996c-1.653,0-2.998,1.344-2.998,2.996
			c0,0.553-0.447,1-1,1s-1-0.447-1-1c0-2.755,2.242-4.996,4.998-4.996c2.754,0,4.994,2.241,4.994,4.996
			C53.998,5.55,53.551,5.997,52.998,5.997z"/>
	</g>
	<g>
		<path d="M57.006,23.997c-2.755,0-4.996-2.241-4.996-4.996c0-0.553,0.447-1,1-1s1,0.447,1,1c0,1.652,1.344,2.996,2.996,2.996
			s2.996-1.344,2.996-2.996c0-0.553,0.447-1,1-1s1,0.447,1,1C62.002,21.756,59.761,23.997,57.006,23.997z"/>
	</g>
	<g>
		<path d="M9,5.997c-0.553,0-1-0.447-1-1c0-2.755,2.241-4.996,4.996-4.996c0.553,0,1,0.447,1,1s-0.447,1-1,1
			C11.344,2.001,10,3.345,10,4.997C10,5.55,9.553,5.997,9,5.997z"/>
	</g>
	<g>
		<path d="M49.004,2.001H12.996c-0.553,0-1-0.447-1-1s0.447-1,1-1h36.008c0.553,0,1,0.447,1,1S49.557,2.001,49.004,2.001z"/>
	</g>
	<g>
		<path d="M52.998,20.001c-0.553,0-1-0.447-1-1V4.997c0-0.553,0.447-1,1-1s1,0.447,1,1v14.004
			C53.998,19.554,53.551,20.001,52.998,20.001z"/>
	</g>
	<g>
		<path d="M57.006,23.997H45c-0.553,0-1-0.447-1-1s0.447-1,1-1h12.006c0.553,0,1,0.447,1,1S57.559,23.997,57.006,23.997z"/>
	</g>
	<g>
		<path d="M61.002,20.001c-0.553,0-1-0.447-1-1v-5.002c0-0.553,0.447-1,1-1s1,0.447,1,1v5.002
			C62.002,19.554,61.555,20.001,61.002,20.001z"/>
	</g>
	<g>
		<path d="M49.002,63.999H4.998c-1.654,0-3-1.346-3-3v-6.005c0-1.654,1.346-3,3-3h3.998c0.553,0,1,0.447,1,1s-0.447,1-1,1H4.998
			c-0.552,0-1,0.448-1,1v6.005c0,0.552,0.448,1,1,1h44.004c0.552,0,1-0.448,1-1v-6.005c0-0.552-0.447-1-0.996-1h-3.998
			c-0.553,0-1-0.447-1-1s0.447-1,1-1h3.998c1.652,0,2.996,1.346,2.996,3v6.005C52.002,62.653,50.656,63.999,49.002,63.999z"/>
	</g>
	<g>
		<path d="M61.002,14.999c-0.256,0-0.512-0.098-0.707-0.293l-2-2c-0.391-0.391-0.391-1.023,0-1.414s1.023-0.391,1.414,0l2,2
			c0.391,0.391,0.391,1.023,0,1.414C61.514,14.901,61.258,14.999,61.002,14.999z"/>
	</g>
	<g>
		<path d="M57.006,14.996c-0.256,0-0.512-0.098-0.707-0.293c-0.391-0.391-0.391-1.023,0-1.414l1.996-1.997
			c0.391-0.391,1.023-0.391,1.414,0s0.391,1.023,0,1.414l-1.996,1.997C57.518,14.898,57.262,14.996,57.006,14.996z"/>
	</g>
	<g>
		<path d="M56.998,14.999c-0.256,0-0.512-0.098-0.707-0.293l-2-2c-0.391-0.391-0.391-1.023,0-1.414s1.023-0.391,1.414,0l2,2
			c0.391,0.391,0.391,1.023,0,1.414C57.51,14.901,57.254,14.999,56.998,14.999z"/>
	</g>
	<g>
		<path d="M53,14.996c-0.256,0-0.512-0.098-0.707-0.293c-0.391-0.391-0.391-1.023,0-1.414l1.998-1.997
			c0.391-0.391,1.023-0.391,1.414,0s0.391,1.023,0,1.414l-1.998,1.997C53.512,14.898,53.256,14.996,53,14.996z"/>
	</g>
	<g>
		<g>
			<path d="M39.998,23.996h-26c-0.553,0-1-0.447-1-1s0.447-1,1-1h26c0.553,0,1,0.447,1,1S40.551,23.996,39.998,23.996z"/>
		</g>
		<g>
			<path d="M38,20.994c-0.553,0-1-0.447-1-1c0-5.514-4.486-10-10-10s-10,4.486-10,10c0,0.553-0.447,1-1,1s-1-0.447-1-1
				c0-6.617,5.383-12,12-12s12,5.383,12,12C39,20.547,38.553,20.994,38,20.994z"/>
		</g>
		<g>
			<path d="M16,23.996c-0.553,0-1-0.447-1-1v-3.002c0-0.553,0.447-1,1-1s1,0.447,1,1v3.002C17,23.549,16.553,23.996,16,23.996z"/>
		</g>
		<g>
			<path d="M37.998,23.932c-0.553,0-1-0.447-1-1v-2.938c0-0.553,0.447-1,1-1s1,0.447,1,1v2.938
				C38.998,23.484,38.551,23.932,37.998,23.932z"/>
		</g>
		<g>
			<path d="M16.998,26.994c-1.654,0-3-1.346-3-3c0-0.553,0.447-1,1-1s1,0.447,1,1c0,0.552,0.448,1,1,1c0.553,0,1,0.447,1,1
				S17.551,26.994,16.998,26.994z"/>
		</g>
		<g>
			<path d="M36.996,26.994c-0.553,0-1-0.447-1-1s0.447-1,1-1c0.552,0,1-0.448,1-1c0-0.553,0.447-1,1-1s1,0.447,1,1
				C39.996,25.648,38.65,26.994,36.996,26.994z"/>
		</g>
		<g>
			<path d="M36.996,26.994H16.998c-0.553,0-1-0.447-1-1s0.447-1,1-1h19.998c0.553,0,1,0.447,1,1S37.549,26.994,36.996,26.994z"/>
		</g>
		<g>
			<path d="M38.998,24.994c-0.553,0-1-0.447-1-1v-0.998c0-0.553,0.447-1,1-1s1,0.447,1,1v0.998
				C39.998,24.547,39.551,24.994,38.998,24.994z"/>
		</g>
		<g>
			<path d="M15,24.994c-0.553,0-1-0.447-1-1v-0.998c0-0.553,0.447-1,1-1s1,0.447,1,1v0.998C16,24.547,15.553,24.994,15,24.994z"/>
		</g>
		<g>
			<path d="M26.988,9.994c-1.379,0-2.5-1.121-2.5-2.5s1.121-2.5,2.5-2.5s2.5,1.121,2.5,2.5S28.367,9.994,26.988,9.994z
				 M26.988,6.994c-0.275,0-0.5,0.225-0.5,0.5s0.225,0.5,0.5,0.5s0.5-0.225,0.5-0.5S27.264,6.994,26.988,6.994z"/>
		</g>
	</g>
</g>
</svg>
